<?xml version="1.0" encoding="UTF-8"?>
<svg version="1.1" xmlns="http://www.w3.org/2000/svg" width="512" height="512">
<path d="M0 0 C1.45108658 0.00273422 1.45108658 0.00273422 2.93148804 0.00552368 C17.26440977 0.05095174 31.21023917 0.55983928 45.3125 3.3125 C46.65803955 3.55395752 46.65803955 3.55395752 48.03076172 3.80029297 C107.84088904 14.62287989 165.35495829 48.68064457 202.3125 97.3125 C202.72918945 97.85277832 203.14587891 98.39305664 203.57519531 98.94970703 C211.2584873 108.9447116 218.00092968 119.40459036 224.3125 130.3125 C224.70679199 130.98974121 225.10108398 131.66698242 225.50732422 132.36474609 C238.68961173 155.2833756 247.29510918 180.85822563 252.625 206.6875 C252.77243652 207.39817627 252.91987305 208.10885254 253.07177734 208.84106445 C256.05713787 224.48358366 256.6873098 240.11919606 256.625 256 C256.62226578 257.45108658 256.62226578 257.45108658 256.61947632 258.93148804 C256.57404826 273.26440977 256.06516072 287.21023917 253.3125 301.3125 C253.15152832 302.20952637 252.99055664 303.10655273 252.82470703 304.03076172 C242.00212011 363.84088904 207.94435543 421.35495829 159.3125 458.3125 C158.77222168 458.72918945 158.23194336 459.14587891 157.67529297 459.57519531 C147.6802884 467.2584873 137.22040964 474.00092968 126.3125 480.3125 C125.63525879 480.70679199 124.95801758 481.10108398 124.26025391 481.50732422 C101.3416244 494.68961173 75.76677437 503.29510918 49.9375 508.625 C49.22682373 508.77243652 48.51614746 508.91987305 47.78393555 509.07177734 C32.14141634 512.05713787 16.50580394 512.6873098 0.625 512.625 C-0.34239105 512.62317719 -1.3097821 512.62135437 -2.30648804 512.61947632 C-16.63940977 512.57404826 -30.58523917 512.06516072 -44.6875 509.3125 C-45.58452637 509.15152832 -46.48155273 508.99055664 -47.40576172 508.82470703 C-107.21588904 498.00212011 -164.72995829 463.94435543 -201.6875 415.3125 C-202.10418945 414.77222168 -202.52087891 414.23194336 -202.95019531 413.67529297 C-210.6334873 403.6802884 -217.37592968 393.22040964 -223.6875 382.3125 C-224.08179199 381.63525879 -224.47608398 380.95801758 -224.88232422 380.26025391 C-238.06461173 357.3416244 -246.67010918 331.76677437 -252 305.9375 C-252.14743652 305.22682373 -252.29487305 304.51614746 -252.44677734 303.78393555 C-255.43213787 288.14141634 -256.0623098 272.50580394 -256 256.625 C-255.99817719 255.65760895 -255.99635437 254.6902179 -255.99447632 253.69351196 C-255.94904826 239.36059023 -255.44016072 225.41476083 -252.6875 211.3125 C-252.44604248 209.96696045 -252.44604248 209.96696045 -252.19970703 208.59423828 C-241.37712011 148.78411096 -207.31935543 91.27004171 -158.6875 54.3125 C-158.14722168 53.89581055 -157.60694336 53.47912109 -157.05029297 53.04980469 C-147.0552884 45.3665127 -136.59540964 38.62407032 -125.6875 32.3125 C-125.01025879 31.91820801 -124.33301758 31.52391602 -123.63525391 31.11767578 C-100.7166244 17.93538827 -75.14177437 9.32989082 -49.3125 4 C-48.60182373 3.85256348 -47.89114746 3.70512695 -47.15893555 3.55322266 C-31.51641634 0.56786213 -15.88080394 -0.0623098 0 0 Z " fill="#656D77" transform="translate(255.6875,-0.3125)"/>
<path d="M0 0 C1.45108658 0.00273422 1.45108658 0.00273422 2.93148804 0.00552368 C17.26440977 0.05095174 31.21023917 0.55983928 45.3125 3.3125 C46.65803955 3.55395752 46.65803955 3.55395752 48.03076172 3.80029297 C107.84088904 14.62287989 165.35495829 48.68064457 202.3125 97.3125 C202.72918945 97.85277832 203.14587891 98.39305664 203.57519531 98.94970703 C211.2584873 108.9447116 218.00092968 119.40459036 224.3125 130.3125 C224.70679199 130.98974121 225.10108398 131.66698242 225.50732422 132.36474609 C238.68961173 155.2833756 247.29510918 180.85822563 252.625 206.6875 C252.77243652 207.39817627 252.91987305 208.10885254 253.07177734 208.84106445 C256.05713787 224.48358366 256.6873098 240.11919606 256.625 256 C256.62226578 257.45108658 256.62226578 257.45108658 256.61947632 258.93148804 C256.57404826 273.26440977 256.06516072 287.21023917 253.3125 301.3125 C253.15152832 302.20952637 252.99055664 303.10655273 252.82470703 304.03076172 C242.00212011 363.84088904 207.94435543 421.35495829 159.3125 458.3125 C158.77222168 458.72918945 158.23194336 459.14587891 157.67529297 459.57519531 C147.6802884 467.2584873 137.22040964 474.00092968 126.3125 480.3125 C125.63525879 480.70679199 124.95801758 481.10108398 124.26025391 481.50732422 C101.3416244 494.68961173 75.76677437 503.29510918 49.9375 508.625 C49.22682373 508.77243652 48.51614746 508.91987305 47.78393555 509.07177734 C32.14141634 512.05713787 16.50580394 512.6873098 0.625 512.625 C-0.34239105 512.62317719 -1.3097821 512.62135437 -2.30648804 512.61947632 C-16.63940977 512.57404826 -30.58523917 512.06516072 -44.6875 509.3125 C-45.58452637 509.15152832 -46.48155273 508.99055664 -47.40576172 508.82470703 C-107.21588904 498.00212011 -164.72995829 463.94435543 -201.6875 415.3125 C-202.10418945 414.77222168 -202.52087891 414.23194336 -202.95019531 413.67529297 C-210.6334873 403.6802884 -217.37592968 393.22040964 -223.6875 382.3125 C-224.08179199 381.63525879 -224.47608398 380.95801758 -224.88232422 380.26025391 C-238.06461173 357.3416244 -246.67010918 331.76677437 -252 305.9375 C-252.14743652 305.22682373 -252.29487305 304.51614746 -252.44677734 303.78393555 C-255.43213787 288.14141634 -256.0623098 272.50580394 -256 256.625 C-255.99817719 255.65760895 -255.99635437 254.6902179 -255.99447632 253.69351196 C-255.94904826 239.36059023 -255.44016072 225.41476083 -252.6875 211.3125 C-252.44604248 209.96696045 -252.44604248 209.96696045 -252.19970703 208.59423828 C-241.37712011 148.78411096 -207.31935543 91.27004171 -158.6875 54.3125 C-158.14722168 53.89581055 -157.60694336 53.47912109 -157.05029297 53.04980469 C-147.0552884 45.3665127 -136.59540964 38.62407032 -125.6875 32.3125 C-125.01025879 31.91820801 -124.33301758 31.52391602 -123.63525391 31.11767578 C-100.7166244 17.93538827 -75.14177437 9.32989082 -49.3125 4 C-48.60182373 3.85256348 -47.89114746 3.70512695 -47.15893555 3.55322266 C-31.51641634 0.56786213 -15.88080394 -0.0623098 0 0 Z M-24.6875 44.3125 C-26.87213792 44.6055258 -29.06033627 44.87225564 -31.25 45.125 C-84.23107186 51.84904636 -134.11781684 81.80117097 -167.33154297 123.37011719 C-191.16532315 154.20231742 -206.39501587 189.73596776 -211.6875 228.3125 C-211.9659375 230.26929688 -211.9659375 230.26929688 -212.25 232.265625 C-213.03030051 239.62161586 -212.93104042 247.04802113 -212.9375 254.4375 C-212.93850708 255.23596344 -212.93951416 256.03442688 -212.94055176 256.85708618 C-212.92920062 270.1985163 -212.17793942 283.17596877 -209.6875 296.3125 C-209.54828125 297.05870605 -209.4090625 297.80491211 -209.265625 298.57373047 C-198.88799141 352.01133674 -166.1753617 401.16745096 -121.51953125 432.11328125 C-107.08180562 441.82614807 -91.73500945 449.63965449 -75.6875 456.3125 C-74.68847656 456.73015625 -73.68945312 457.1478125 -72.66015625 457.578125 C-58.29505996 463.15594359 -42.90868914 466.22423811 -27.6875 468.3125 C-26.38296875 468.498125 -25.0784375 468.68375 -23.734375 468.875 C-16.37838414 469.65530051 -8.95197887 469.55604042 -1.5625 469.5625 C-0.76403656 469.56350708 0.03442688 469.56451416 0.85708618 469.56555176 C14.1985163 469.55420062 27.17596877 468.80293942 40.3125 466.3125 C41.43180908 466.10367188 41.43180908 466.10367188 42.57373047 465.890625 C95.94096801 455.52665709 145.19164433 422.74729557 176.109375 378.15234375 C192.74581876 353.425644 204.80449665 325.66301785 210.3125 296.3125 C210.46203125 295.53970703 210.6115625 294.76691406 210.765625 293.97070312 C213.30595394 280.20693813 213.57838492 266.5135858 213.5625 252.5625 C213.56181519 251.68172791 213.56113037 250.80095581 213.5604248 249.89349365 C213.55395394 247.37156086 213.53760682 244.84996667 213.515625 242.328125 C213.51123413 241.56349945 213.50684326 240.7988739 213.50231934 240.01107788 C213.46006015 236.85427187 213.31793498 234.32880495 212.3125 231.3125 C212.0194742 229.12786208 211.75274436 226.93966373 211.5 224.75 C204.77595364 171.76892814 174.82382903 121.88218316 133.25488281 88.66845703 C89.67086218 54.97731727 40.66885909 42.62742712 -13.70703125 43.109375 C-14.84915825 43.11597641 -14.84915825 43.11597641 -16.01435852 43.12271118 C-19.16339895 43.16501041 -21.67848141 43.3094938 -24.6875 44.3125 Z " fill="#434A54" transform="translate(255.6875,-0.3125)"/>
<path d="M0 0 C2.58297781 2.18991597 4.48415844 3.96831688 6 7 C6.09182083 9.1547893 6.11750462 11.31249718 6.11352539 13.46923828 C6.11367142 14.13277313 6.11381744 14.79630798 6.1139679 15.47994995 C6.11327031 17.67677053 6.10548514 19.8735067 6.09765625 22.0703125 C6.09579152 23.59203037 6.09436788 25.11374884 6.09336853 26.63546753 C6.08954767 30.64351047 6.07972104 34.65151726 6.06866455 38.6595459 C6.05844118 42.74828604 6.05386892 46.83703201 6.04882812 50.92578125 C6.0380984 58.95053744 6.02102713 66.97526422 6 75 C7.08192627 74.98179199 8.16385254 74.96358398 9.27856445 74.94482422 C28.14732599 75.22458149 46.83674247 89.3629423 59.35546875 102.15234375 C61 104 61 104 62 106 C65.48616154 105.32313971 68.17749011 103.93012425 71.26171875 102.19140625 C72.29014893 101.61398682 73.3185791 101.03656738 74.37817383 100.44165039 C75.47025146 99.82153076 76.5623291 99.20141113 77.6875 98.5625 C78.80858154 97.93013428 79.92966309 97.29776855 81.0847168 96.64624023 C87.52454578 93.0034481 93.93806661 89.31851687 100.3125 85.5625 C101.32594482 84.96731567 101.32594482 84.96731567 102.35986328 84.36010742 C105.41025522 82.560974 108.43498812 80.73491117 111.421875 78.83203125 C121.37570725 72.62945667 121.37570725 72.62945667 128 74 C131.00151417 75.79959493 133.40755965 77.81511929 135 81 C135.48121139 85.17049874 135.45403279 87.30903949 133.12109375 90.859375 C129.40869964 95.05315073 124.56560699 97.38631944 119.6875 100 C117.62795452 101.13238532 115.56939335 102.26656236 113.51171875 103.40234375 C112.44614746 103.98741699 111.38057617 104.57249023 110.28271484 105.17529297 C104.80576956 108.21966966 99.40401703 111.39100468 94 114.5625 C91.15053829 116.23200739 88.30089036 117.90116445 85.44921875 119.56689453 C83.90723708 120.46915055 82.36779003 121.37576624 80.83203125 122.28857422 C76.21987341 125 76.21987341 125 74 125 C74.52400391 126.64548828 74.52400391 126.64548828 75.05859375 128.32421875 C75.51836664 129.77860238 75.97799441 131.23303189 76.4375 132.6875 C76.66759766 133.40873047 76.89769531 134.12996094 77.13476562 134.87304688 C77.35712891 135.57880859 77.57949219 136.28457031 77.80859375 137.01171875 C78.01282959 137.65584717 78.21706543 138.29997559 78.42749023 138.96362305 C82.68481986 154.10664498 81.322189 172.31542012 76 187 C75.33195132 188.9995388 74.66486945 190.99940183 74 193 C74.84046875 193.24363281 75.6809375 193.48726562 76.546875 193.73828125 C80.40711798 195.14875465 83.75843791 197.05945605 87.25 199.1875 C88.74393789 200.0834564 90.23879431 200.97788231 91.734375 201.87109375 C92.56001953 202.36464355 93.38566406 202.85819336 94.23632812 203.36669922 C100.72260911 207.20002252 107.27956239 210.91444514 113.82519531 214.64526367 C131.68078697 224.88789023 131.68078697 224.88789023 135 230 C135.41400071 233.1702246 134.96272397 235.96038836 134 239 C131.0203542 242.5610401 129.17757815 243.80396231 124.59765625 244.56640625 C117.97503777 244.3806545 112.50466634 240.19717934 107 236.875 C105.76926814 236.14925256 104.53756431 235.42515106 103.30493164 234.70263672 C100.77885986 233.21873957 98.25861933 231.72561213 95.74267578 230.22460938 C92.15486438 228.08673465 88.54798896 225.98316959 84.93359375 223.890625 C80.80510034 221.49811332 76.67775468 219.10386554 72.55859375 216.6953125 C71.74704834 216.22109863 70.93550293 215.74688477 70.09936523 215.25830078 C68.36919416 214.22128465 66.67837031 213.11891354 65 212 C62.0073409 211.65111646 62.0073409 211.65111646 60.4921875 213.46875 C59.95851563 214.1390625 59.42484375 214.809375 58.875 215.5 C47.11384611 229.41736544 33.02264805 236.59390628 16 242 C15.01 242.33 14.02 242.66 13 243 C10.66700175 243.03954234 8.33291811 243.04401732 6 243 C6.00999275 244.21696312 6.00999275 244.21696312 6.02018738 245.45851135 C6.08042594 253.123424 6.12603892 260.78822104 6.15543652 268.45330906 C6.17105847 272.39353641 6.19223273 276.33356732 6.22631836 280.27368164 C6.25903646 284.07975622 6.27687909 287.88564244 6.28463173 291.69184685 C6.290153 293.1402476 6.3009346 294.58863864 6.31719017 296.03695869 C6.47033274 310.25345565 6.47033274 310.25345565 3 316 C-0.14381258 318.87434293 -1.70241439 319 -6 319 C-10.2366493 318.28721779 -12.30464847 316.34877008 -15 313 C-16.4278535 310.14429301 -16.11941486 307.72285644 -16.11352539 304.53076172 C-16.11367142 303.86722687 -16.11381744 303.20369202 -16.1139679 302.52005005 C-16.11327031 300.32322947 -16.10548514 298.1264933 -16.09765625 295.9296875 C-16.09579152 294.40796963 -16.09436788 292.88625116 -16.09336853 291.36453247 C-16.08954767 287.35648953 -16.07972104 283.34848274 -16.06866455 279.3404541 C-16.05844118 275.25171396 -16.05386892 271.16296799 -16.04882812 267.07421875 C-16.0380984 259.04946256 -16.02102713 251.02473578 -16 243 C-17.07886475 243.01675781 -18.15772949 243.03351563 -19.26928711 243.05078125 C-23.30730072 242.99581712 -26.75197352 242.21836695 -30.5625 241 C-31.25359863 240.77997314 -31.94469727 240.55994629 -32.65673828 240.33325195 C-46.36157086 235.71433181 -65.34385717 225.31228566 -72 212 C-75.48616154 212.67686029 -78.17749011 214.06987575 -81.26171875 215.80859375 C-82.29031006 216.38609375 -83.31890137 216.96359375 -84.37866211 217.55859375 C-85.47057861 218.17863281 -86.56249512 218.79867187 -87.6875 219.4375 C-88.80713135 220.06914062 -89.9267627 220.70078125 -91.08032227 221.3515625 C-102.8729732 228.02304142 -114.57555972 234.84350624 -126.1171875 241.94140625 C-130.11481118 244.18903284 -133.48524623 244.4591275 -138 244 C-141.58014577 241.94473113 -143.36748152 240.74665002 -144.76953125 236.875 C-145.5403939 232.61004029 -145.55709739 230.8682794 -143.1328125 227.08984375 C-139.39982248 222.94797436 -134.5457414 220.60303662 -129.6875 218 C-127.62795452 216.86761468 -125.56939335 215.73343764 -123.51171875 214.59765625 C-122.44614746 214.01258301 -121.38057617 213.42750977 -120.28271484 212.82470703 C-114.80576956 209.78033034 -109.40401703 206.60899532 -104 203.4375 C-101.15053829 201.76799261 -98.30089036 200.09883555 -95.44921875 198.43310547 C-93.90723708 197.53084945 -92.36779003 196.62423376 -90.83203125 195.71142578 C-86.21987341 193 -86.21987341 193 -84 193 C-84.34933594 191.92621094 -84.69867188 190.85242188 -85.05859375 189.74609375 C-85.51852249 188.30998974 -85.97814142 186.87378648 -86.4375 185.4375 C-86.66759766 184.73302734 -86.89769531 184.02855469 -87.13476562 183.30273438 C-93.02831546 164.76794722 -91.49046129 142.83443163 -84 125 C-84.84046875 124.75636719 -85.6809375 124.51273437 -86.546875 124.26171875 C-90.40711798 122.85124535 -93.75843791 120.94054395 -97.25 118.8125 C-98.74393789 117.9165436 -100.23879431 117.02211769 -101.734375 116.12890625 C-102.56001953 115.63535645 -103.38566406 115.14180664 -104.23632812 114.63330078 C-110.72260911 110.79997748 -117.27956239 107.08555486 -123.82519531 103.35473633 C-141.81833839 93.0332052 -141.81833839 93.0332052 -145 88 C-145.49677002 84.64680233 -145.74097161 82.229464 -143.9453125 79.25 C-141.17705104 75.84290897 -139.39460933 74.20770777 -135.0625 73.5625 C-129.3269788 73.6912566 -124.80188998 77.17335555 -120 80 C-118.71345945 80.71549122 -117.42423089 81.42616351 -116.1328125 82.1328125 C-107.02766923 87.11550698 -98.02838192 92.27107778 -89.0625 97.5 C-87.48915894 98.41749023 -87.48915894 98.41749023 -85.8840332 99.35351562 C-78.40440312 103.73039792 -78.40440312 103.73039792 -75 106 C-72.0073409 106.34888354 -72.0073409 106.34888354 -70.4921875 104.53125 C-69.69167969 103.52578125 -69.69167969 103.52578125 -68.875 102.5 C-59.59274679 91.51600037 -48.23866355 83.7599234 -34.875 78.5625 C-34.25488037 78.3154834 -33.63476074 78.0684668 -32.99584961 77.81396484 C-29.07939409 76.38582005 -25.40122093 75.77008231 -21.24267578 75.42944336 C-20.25888947 75.34681747 -19.27510315 75.26419159 -18.26150513 75.17906189 C-17.14206009 75.09042625 -17.14206009 75.09042625 -16 75 C-16.00888245 74.16141449 -16.01776489 73.32282898 -16.0269165 72.45883179 C-16.10717211 64.54347202 -16.16802001 56.62824953 -16.20724869 48.71257591 C-16.2280949 44.64333061 -16.25635753 40.57442241 -16.30175781 36.50537109 C-16.3453226 32.57609382 -16.36915942 28.64714013 -16.37950897 24.71763992 C-16.38688138 23.22094252 -16.4012782 21.72426218 -16.42292023 20.22770309 C-16.45209757 18.12586398 -16.45595032 16.02534994 -16.45410156 13.92333984 C-16.46298401 12.72865082 -16.47186646 11.53396179 -16.48101807 10.30307007 C-15.8978993 6.29889168 -14.50241978 4.14215321 -12 1 C-7.90407986 -1.54611252 -4.58302563 -1.22759615 0 0 Z " fill="#FECD54" transform="translate(261,97)"/>
<path d="M0 0 C2.58297781 2.18991597 4.48415844 3.96831688 6 7 C6.09175034 9.12417 6.11750694 11.25129455 6.11352539 13.37744141 C6.11367142 14.03122269 6.11381744 14.68500397 6.1139679 15.3585968 C6.11327036 17.52295227 6.1054854 19.68722204 6.09765625 21.8515625 C6.09579151 23.35086012 6.09436787 24.85015834 6.09336853 26.34945679 C6.08954779 30.29831622 6.07972128 34.24713896 6.06866455 38.19598389 C6.05844091 42.22440087 6.05386887 46.25282378 6.04882812 50.28125 C6.03809862 58.18751873 6.0205054 66.09375057 6 74 C-1.26 74 -8.52 74 -16 74 C-16.09049025 65.36792607 -16.1638245 56.73616889 -16.20724869 48.10372734 C-16.2280937 44.09501348 -16.25635406 40.08664189 -16.30175781 36.078125 C-16.34532699 32.20720191 -16.36916032 28.33660735 -16.37950897 24.46545792 C-16.3868806 22.99108842 -16.40127592 21.51673622 -16.42292023 20.04250717 C-16.45210357 17.97179541 -16.4559501 15.9024284 -16.45410156 13.83154297 C-16.46742523 12.06615677 -16.46742523 12.06615677 -16.48101807 10.2651062 C-15.89472367 6.28539397 -14.48441489 4.12628119 -12 1 C-7.90407986 -1.54611252 -4.58302563 -1.22759615 0 0 Z " fill="#F1B843" transform="translate(261,97)"/>
<path d="M0 0 C7.26 0 14.52 0 22 0 C22.06791916 8.35405725 22.12289835 16.70789794 22.15543652 25.06215763 C22.17105735 28.94185246 22.19222949 32.82134773 22.22631836 36.70092773 C22.25904056 40.44864792 22.27687994 44.19617678 22.28463173 47.94402885 C22.29015227 49.37010139 22.30093244 50.79616407 22.31719017 52.22215462 C22.47040048 66.22402648 22.47040048 66.22402648 19 72 C15.85618742 74.87434293 14.29758561 75 10 75 C5.7633507 74.28721779 3.69535153 72.34877008 1 69 C-0.41697193 66.16605613 -0.11945929 63.79126262 -0.11352539 60.62255859 C-0.11367142 59.96877731 -0.11381744 59.31499603 -0.1139679 58.6414032 C-0.11327036 56.47704773 -0.1054854 54.31277796 -0.09765625 52.1484375 C-0.09579151 50.64913988 -0.09436787 49.14984166 -0.09336853 47.65054321 C-0.08954779 43.70168378 -0.07972128 39.75286104 -0.06866455 35.80401611 C-0.05844091 31.77559913 -0.05386887 27.74717622 -0.04882812 23.71875 C-0.03809862 15.81248127 -0.0205054 7.90624943 0 0 Z " fill="#F1B843" transform="translate(245,341)"/>
<path d="M0 0 C3.01784991 1.75607646 5.41468217 3.82936435 7 7 C7.48121139 11.17049874 7.45403279 13.30903949 5.12109375 16.859375 C1.40875507 21.05308811 -3.43434621 23.3865427 -8.3125 26 C-10.37600311 27.13359259 -12.43846933 28.26907431 -14.5 29.40625 C-15.56605469 29.99148437 -16.63210938 30.57671875 -17.73046875 31.1796875 C-24.13997254 34.74818065 -30.44207479 38.50320844 -36.75317383 42.2421875 C-42.72127051 45.7528932 -48.76287142 48.99219163 -55 52 C-55.47050781 51.04738281 -55.94101562 50.09476563 -56.42578125 49.11328125 C-57.05457916 47.84630039 -57.68349148 46.57937631 -58.3125 45.3125 C-58.62123047 44.68666016 -58.92996094 44.06082031 -59.24804688 43.41601562 C-61.02488471 39.84363639 -62.9271371 36.40706073 -65 33 C-62.35767008 31.47557889 -59.71533818 29.95116121 -57.07299805 28.42675781 C-54.75411792 27.08892341 -52.4352653 25.75104148 -50.11645508 24.41308594 C-44.56785387 21.21162719 -39.01902665 18.01056425 -33.46881104 14.81190491 C-31.68469579 13.78367401 -29.90068228 12.75526684 -28.11669922 11.72680664 C-25.86722699 10.43006902 -23.61755915 9.13367064 -21.36767578 7.83764648 C-20.34270996 7.24669189 -19.31774414 6.6557373 -18.26171875 6.046875 C-17.36412842 5.52963867 -16.46653809 5.01240234 -15.54174805 4.47949219 C-13.81056175 3.47180907 -12.10255219 2.42347525 -10.41723633 1.34082031 C-6.97995681 -0.56580923 -3.78334564 -0.81282817 0 0 Z " fill="#F4B942" transform="translate(389,171)"/>
<path d="M0 0 C3.84912164 1.6732436 7.38704003 3.87322214 11 6 C12.98839472 7.10581743 14.98449314 8.19699451 16.98046875 9.2890625 C25.32450696 13.86720736 33.57868783 18.60206407 41.8125 23.375 C42.84463623 23.96990234 43.87677246 24.56480469 44.94018555 25.17773438 C45.91511963 25.74556641 46.89005371 26.31339844 47.89453125 26.8984375 C48.75925049 27.40036621 49.62396973 27.90229492 50.51489258 28.41943359 C53.17283398 30.10992506 55.5754999 31.99211332 58 34 C57.44570312 34.88042969 56.89140625 35.76085937 56.3203125 36.66796875 C55.58833173 37.84101486 54.85657261 39.0141993 54.125 40.1875 C53.57779297 41.0547168 53.57779297 41.0547168 53.01953125 41.93945312 C50.98488295 45.21338721 49.37679652 48.40800753 48 52 C40.01219913 48.11652999 32.26802602 43.95938791 24.625 39.4375 C23.60567383 38.83687744 22.58634766 38.23625488 21.53613281 37.61743164 C19.41892992 36.36978257 17.30239573 35.12099805 15.18652344 33.87109375 C12.03356652 32.01970991 8.86695174 30.19415953 5.6953125 28.375 C3.71352121 27.22920205 1.73174957 26.08337011 -0.25 24.9375 C-1.17216309 24.41406006 -2.09432617 23.89062012 -3.04443359 23.35131836 C-7.52433156 20.74317012 -11.23674858 18.54233111 -14 14 C-14.55747889 10.59318457 -14.77411846 8.27686698 -12.94140625 5.25390625 C-9.15276558 0.56588501 -5.9722476 -1.09672183 0 0 Z " fill="#F4BA42" transform="translate(130,171)"/>
<path d="M0 0 C3.97510033 0.58913553 6.80697025 1.82045195 10.26171875 3.8515625 C11.79856323 4.74693726 11.79856323 4.74693726 13.36645508 5.66040039 C14.4623999 6.30871826 15.55834473 6.95703613 16.6875 7.625 C18.42185926 8.6420329 20.15622913 9.65904819 21.89122009 10.67500305 C23.09182052 11.37829397 24.29189748 12.0824792 25.49147034 12.78752136 C29.74118898 15.28067592 34.02180117 17.71322943 38.3203125 20.12109375 C39.50450682 20.78855626 40.68851024 21.45635757 41.87231445 22.12451172 C44.12116478 23.39137524 46.37474625 24.64988633 48.63354492 25.89892578 C54.11426451 29.0079854 58.62094682 31.59055084 62 37 C62.65490883 40.24259737 62.11649802 42.90114835 61 46 C58.0203542 49.5610401 56.17757815 50.80396231 51.59765625 51.56640625 C44.97532852 51.38066266 39.50420384 47.1975668 34 43.875 C32.76778355 43.14782252 31.53461502 42.42225612 30.30053711 41.69824219 C27.77320781 40.21254042 25.25161077 38.71773804 22.73388672 37.21582031 C19.17589665 35.09748808 15.59395093 33.02451051 12.00390625 30.9609375 C9.85669263 29.72409409 7.70955352 28.48712131 5.5625 27.25 C4.56927734 26.67878418 3.57605469 26.10756836 2.55273438 25.51904297 C-1.89096873 22.93360161 -6.11315171 20.39996071 -10 17 C-9.44570313 16.10796875 -8.89140625 15.2159375 -8.3203125 14.296875 C-7.58845201 13.11463883 -6.85668616 11.93234407 -6.125 10.75 C-5.57779297 9.87021484 -5.57779297 9.87021484 -5.01953125 8.97265625 C-3.20714706 6.0398891 -1.46799733 3.12142589 0 0 Z " fill="#F4BA42" transform="translate(334,290)"/>
<path d="M0 0 C1.2930106 2.24923704 2.58444977 4.49935185 3.875 6.75 C4.42220703 7.70132812 4.42220703 7.70132812 4.98046875 8.671875 C6.74061058 11.74412255 8.43626052 14.82384432 10 18 C8.40885417 18.91796875 6.81770833 19.8359375 5.2265625 20.75390625 C4.1859668 21.35428711 3.14537109 21.95466797 2.07324219 22.57324219 C-0.24628985 23.91135795 -2.56593081 25.24928283 -4.88574219 26.58691406 C-10.42809641 29.78305771 -15.96952958 32.98073339 -21.50540161 36.18809509 C-23.28144511 37.21700382 -25.05789689 38.245204 -26.83447266 39.27319336 C-29.0719407 40.56817397 -31.30862459 41.86451063 -33.54443359 43.16235352 C-34.56617676 43.75330811 -35.58791992 44.3442627 -36.640625 44.953125 C-37.53297852 45.47036133 -38.42533203 45.98759766 -39.34472656 46.52050781 C-48.93830681 51.86595617 -48.93830681 51.86595617 -55 51 C-58.58014577 48.94473113 -60.36748152 47.74665002 -61.76953125 43.875 C-62.5403939 39.61004029 -62.55709739 37.8682794 -60.1328125 34.08984375 C-56.39982248 29.94797436 -51.5457414 27.60303662 -46.6875 25 C-44.62795452 23.86761468 -42.56939335 22.73343764 -40.51171875 21.59765625 C-39.44614746 21.01258301 -38.38057617 20.42750977 -37.28271484 19.82470703 C-31.80576956 16.78033034 -26.40401703 13.60899532 -21 10.4375 C-18.1495623 8.76742078 -15.29901872 7.0975941 -12.4453125 5.43310547 C-10.91362611 4.53544182 -9.38673609 3.62948639 -7.8671875 2.71142578 C-3.32159689 0 -3.32159689 0 0 0 Z " fill="#F4BA42" transform="translate(178,290)"/>
<path d="M0 0 C3.02508145 1.73602105 5.41790069 3.83580137 7 7 C7.38482057 11.07909806 7.44121857 13.29089873 5.25 16.8125 C2.18388248 19.79344759 0.34605804 20.79516508 -3.875 21.4375 C-8.29756265 20.81834123 -9.85550157 19.14449843 -13 16 C-14.20190901 12.39427296 -14.32670315 9.7897565 -14 6 C-10.31972815 0.3569165 -6.69430614 -1.14262739 0 0 Z " fill="#A7AFB9" transform="translate(377,449)"/>
<path d="M0 0 C3.62760073 1.64890942 6.08652985 3.47518657 8 7 C8.6078824 10.99465578 8.17186383 12.69183037 6.1875 16.25 C3.4993744 19.62935789 1.99871901 20.86809372 -2.3125 21.4375 C-7.17487109 20.86060851 -8.58138701 19.41861299 -12 16 C-13.60086627 12.79826746 -13.49917089 9.47422941 -13 6 C-9.33747506 0.26204426 -6.68906908 -0.45349621 0 0 Z " fill="#A7AFB9" transform="translate(462,363)"/>
<path d="M0 0 C3.5386994 1.65139305 4.81070153 2.71605229 7 6 C7.46287185 10.99901603 7.10431905 14.00873265 4 18 C2.08166756 20.2134605 0.84167666 20.93209738 -2.08203125 21.16796875 C-6.21568636 20.98287972 -9.16480001 20.46312028 -12.0625 17.375 C-14.34922928 13.39166513 -14.8063677 11.51565913 -14 7 C-10.29456288 0.92417297 -6.99278584 -0.47408718 0 0 Z " fill="#A7AFB9" transform="translate(142,449)"/>
<path d="M0 0 C3.58014577 2.05526887 5.36748152 3.25334998 6.76953125 7.125 C7.36184059 10.40207596 7.58352348 12.86366479 6.03515625 15.87890625 C3.90940358 18.56032679 2.25522886 19.91492371 -1 21 C-5.15960211 21.38514834 -7.29849613 21.44225244 -10.875 19.1875 C-13.59614598 16.38632031 -13.93893366 14.53941937 -14.375 10.6875 C-13.87765929 5.79698299 -12.42915508 4.42915508 -9 1 C-5.85088521 -0.57455739 -3.47991184 -0.34799118 0 0 Z " fill="#A7AFB9" transform="translate(463,128)"/>
<path d="M0 0 C3.6578218 2.03993908 5.66946174 3.50419262 8 7 C8.28258469 10.14375467 7.89447767 12.97782989 7 16 C4.5436322 18.93565908 2.80175198 20.60586675 -1 21.4375 C-4.65302194 21.65889527 -6.83651719 21.10087237 -9.9375 19.1875 C-12.58450924 16.38006596 -12.94382263 14.49623347 -13.375 10.6875 C-12.87765929 5.79698299 -11.42915508 4.42915508 -8 1 C-5.13391871 -0.43304064 -3.18699217 -0.30644155 0 0 Z " fill="#A7AFB9" transform="translate(376,42)"/>
<path d="M0 0 C5.53846154 3.07692308 5.53846154 3.07692308 7 6 C7.49337839 10.93378393 7.52463704 13.06919235 5.0625 17.4375 C1.59540264 20.33854065 -0.41962745 21.02461597 -4.84765625 21.23828125 C-8.21156613 20.86587017 -9.78855966 19.47949372 -12 17 C-14.28647877 13.73360176 -14.54954056 10.92528971 -14 7 C-10.25237171 0.99543572 -7.00926843 -0.5841057 0 0 Z " fill="#A7AFB9" transform="translate(56,363)"/>
<path d="M0 0 C3.87165002 1.40204973 5.06973113 3.18938548 7.125 6.76953125 C7.67763322 10.70704292 7.48720775 12.95456381 5.875 16.58203125 C3.9667835 18.96730187 3.03151969 19.88142801 0.125 20.76953125 C-4.04545536 21.22449002 -6.12484637 21.25296359 -9.6875 18.95703125 C-13.77623457 14.86829668 -13.77623457 14.86829668 -14.0625 11.68359375 C-13.73107409 7.63743574 -13.34529288 4.58182088 -10.375 1.64453125 C-6.41316631 -0.47787966 -4.34590636 -0.78549321 0 0 Z " fill="#A7AFB9" transform="translate(55.875,128.23046875)"/>
<path d="M0 0 C2.92810762 1.81651121 5.43591638 3.87183276 7 7 C7.4128469 11.29360777 7.2493583 13.53567766 5.1875 17.375 C2.43678342 20.6758599 0.8952067 20.89865584 -3.3125 21.375 C-7.04223987 20.99570442 -9.08085315 20.29036979 -11.82421875 17.6875 C-14.1295762 14.37881423 -14.5476404 10.94439729 -14 7 C-10.9703312 1.10011864 -6.42803984 -0.75623998 0 0 Z " fill="#A7AFB9" transform="translate(142,42)"/>
<path d="M0 0 C2.8125 2.4375 2.8125 2.4375 5 5 C5.33 5.33 5.66 5.66 6 6 C6.58169863 10.61544489 6.6241677 14.00133167 4.125 18 C0.85159987 21.08084718 -1.46126475 21.33387487 -5.9609375 21.29296875 C-9.13134567 20.83745033 -10.8192402 19.24684343 -13 17 C-14.73765543 13.52468913 -14.59585352 9.7911999 -14 6 C-10.09277213 0.93116385 -6.36757447 -0.76410894 0 0 Z " fill="#A7AFB9" transform="translate(260,480)"/>
<path d="M0 0 C2.8100346 1.79363911 4.50940468 3.01880935 6 6 C6.42068924 9.05901174 6.49028455 11.94758326 6 15 C3.5625 18 3.5625 18 1 20 C0.67 20.33 0.34 20.66 0 21 C-4.65442841 21.13463223 -8.14227977 20.56014382 -12.0625 18 C-14.68513751 13.93914192 -14.94747991 10.71179197 -14 6 C-10.38599231 0.2175877 -6.68966949 -0.96115941 0 0 Z " fill="#A7AFB9" transform="translate(260,11)"/>
<path d="M0 0 C2.87029869 1.79393668 4.49131638 2.98263276 6 6 C6.5811138 13.08958838 6.5811138 13.08958838 4.125 16.9375 C0.64240255 20.31766811 -2.03637499 20.40798732 -6.73828125 20.33984375 C-9 20 -9 20 -12 17.9375 C-14.40813237 14.40055558 -15 12.27436594 -15 8 C-12.09343948 0.29761462 -7.71725419 -1.13727956 0 0 Z " fill="#A8AFB9" transform="translate(495,246)"/>
<path d="M0 0 C3.00947682 2.00631788 4.50462948 3.46435138 5.625 6.9375 C6.24865905 10.36762478 6.13916134 12.67992892 4.75 15.875 C2.74449166 18.31026013 1.0965319 19.82340497 -2.0859375 20.3359375 C-6.21467052 20.40639369 -8.41215089 20.3674057 -12 18.125 C-15.08084718 14.85159987 -15.33387487 12.53873525 -15.29296875 8.0390625 C-14.83745033 4.86865433 -13.24684343 3.1807598 -11 1 C-7.51118574 -0.74440713 -3.80666824 -0.56541186 0 0 Z " fill="#A8B0BA" transform="translate(26,246)"/>
<path d="M0 0 C3.125 1.875 3.125 1.875 5 5 C5.98876625 10.02622846 5.7769173 13.70513784 3.125 18.125 C-1.29486216 20.7769173 -4.97377154 20.98876625 -10 20 C-13.125 18.125 -13.125 18.125 -15 15 C-15.98876625 9.97377154 -15.7769173 6.29486216 -13.125 1.875 C-8.70513784 -0.7769173 -5.02622846 -0.98876625 0 0 Z " fill="#454B54" transform="translate(261,246)"/>
</svg>
